<svg width="49" height="49" viewBox="0 0 49 49" fill="none" xmlns="http://www.w3.org/2000/svg">
<circle cx="24.5" cy="24.5" r="23.5" fill="#FF2626" stroke="#8C0000" stroke-width="2"/>
<mask id="mask0_2_102" style="mask-type:alpha" maskUnits="userSpaceOnUse" x="2" y="2" width="45" height="45">
<circle cx="24.5" cy="24.5" r="22.5" fill="#FF2626"/>
</mask>
<g mask="url(#mask0_2_102)">
<path d="M40 41.5C28 46 19 36 15 30C12.5454 26.3181 6.5 12 10.5 4.99998L-8 28.5L27 54.5C35.3333 48.6667 49.6 37.9 40 41.5Z" fill="#D10000"/>
<path d="M11.5 3.00001C23.7002 -0.924955 36.6256 7.81678 40.3361 14C43 18.4391 47.828 30.1979 43.5 37L64.5746 18.4391L30.849 -9.19388C22.248 -3.76293 1.73988 6.13999 11.5 3.00001Z" fill="#FF9090"/>
</g>
</svg>
