<svg width="37" height="37" viewBox="0 0 37 37" fill="none" xmlns="http://www.w3.org/2000/svg">
<circle cx="18.5" cy="18.5" r="18" fill="#FFD74A" stroke="#AD5E00"/>
<circle cx="18.5" cy="18.5" r="12" fill="#E2B100" stroke="#C0852C"/>
<mask id="mask0_5_2" style="mask-type:alpha" maskUnits="userSpaceOnUse" x="1" y="1" width="35" height="35">
<circle cx="18.5" cy="18.5" r="17.5" fill="#FFBA34"/>
</mask>
<g mask="url(#mask0_5_2)">
<path d="M4.5 24C6.74468 29.8362 17.1667 38 26.5 34.5C33.9667 31.7 21.7037 40.4604 15.2222 44.9974L-12 24.7752L0.5 5L14.3008 -0.436687C15.2213 -0.950902 16.1317 -1.31393 17 -1.5L14.3008 -0.436687C7.80069 3.19444 0.794042 14.3645 4.5 24Z" fill="#EFAC00"/>
<path d="M8.38892 1.77779C17.878 -1.27496 27.9311 5.52417 30.817 10.3333C32.8889 13.786 36.644 22.9317 33.2778 28.2222L49.6692 13.786L23.4381 -7.70634C16.7485 -3.48227 0.797692 4.22 8.38892 1.77779Z" fill="#FFE99D"/>
<path d="M24.0574 19.75L20.5933 13.75C19.631 12.0833 17.2254 12.0833 16.2631 13.75L12.799 19.75C11.8368 21.4167 13.0396 23.5 14.9641 23.5H21.8923C23.8168 23.5 25.0196 21.4167 24.0574 19.75Z" fill="#FFD74A" stroke="#C0852C"/>
</g>
</svg>
