<svg width="55" height="68" viewBox="0 0 55 68" fill="none" xmlns="http://www.w3.org/2000/svg">
<path d="M33 11.5V56C33.1667 59.6667 30.4 67 18 67C2.5 67 0.5 62 0.5 56C0.5 50 10 48 18 48C21.4783 48 22.6526 48.443 23 48.9278V18V0.999986C30.8333 0.499986 42.5 3.5 49 8.99999C54.5 13.6538 54.5 12.5 54.5 22C54.5 29.8262 47.5 8.99999 33 11.5Z" fill="white"/>
<path d="M33 11.5V56C33.1667 59.6667 30.4 67 18 67C2.5 67 0.5 62 0.5 56C0.5 50 10 48 18 48C24.4 48 23 49.5 23 50V18V0.999986C30.8333 0.499986 42.5 3.5 49 8.99999C54.5 13.6538 54.5 12.5 54.5 22C54.5 29.8262 47.5 8.99999 33 11.5Z" stroke="black"/>
</svg>
