<svg width="54" height="67" viewBox="0 0 54 67" fill="none" xmlns="http://www.w3.org/2000/svg">
<mask id="path-1-inside-1_33_27" fill="white">
<path d="M32.5002 10.5542V32.0404L52.1843 51.7246C53.2161 52.7564 53.2161 54.4398 52.1843 55.4716L49.4445 58.211C48.4127 59.2428 46.7293 59.2428 45.6975 58.211L32.5002 45.0136V55.0536C32.6668 58.7205 29.9002 66.0539 17.5004 66.0539C2.00014 66.0539 0 61.0536 0 55.0536C0 49.0536 9.50023 47.0538 17.5004 47.0538L17.6617 47.0542L17.7948 47.055H17.8197L17.9743 47.0568L18.0779 47.058L18.1259 47.0587L18.274 47.0617L18.35 47.0633L18.4191 47.0652L18.5609 47.0693L18.6111 47.0708L18.6996 47.0739L18.8353 47.0791L18.8617 47.0803L18.9676 47.0848L19.0972 47.0909L19.1021 47.0912L19.2238 47.098L19.3323 47.1045L19.347 47.1052L19.4676 47.1132L19.5526 47.1192L19.5855 47.1215L19.7 47.1305L19.7631 47.1358L19.8123 47.14L19.9211 47.1498L19.9642 47.154L20.0277 47.1604L20.1313 47.1714L20.1558 47.174L20.2322 47.1827L20.3305 47.1944L20.3384 47.1955L20.4261 47.2069L20.5119 47.2186L20.5194 47.2194L20.6098 47.2326L20.677 47.2428L20.6978 47.2462L20.7832 47.2602L20.8335 47.2689L20.8664 47.2745C21.0527 47.3074 21.2202 47.3441 21.3706 47.383L21.3785 47.3849L21.3812 47.3857L21.3846 47.3864L21.4961 47.417L21.5082 47.4204C21.5784 47.4408 21.6442 47.462 21.7062 47.4832L21.7088 47.4839L21.7368 47.4938L21.789 47.5127L21.8052 47.5187L21.8392 47.5319L21.8872 47.5516L21.8948 47.5546L21.9042 47.5588L21.978 47.5913L22.0207 47.6117L22.0551 47.6287L22.0615 47.6321L22.1208 47.6639L22.1265 47.6669L22.1382 47.6737C22.1991 47.7084 22.2531 47.7443 22.3007 47.7806L22.3064 47.7852L22.3548 47.8245L22.3555 47.8252L22.4001 47.866L22.4031 47.8687L22.4364 47.9035L22.4402 47.9072L22.4459 47.9137L22.4651 47.9359L22.4757 47.9488L22.4833 47.9586L22.5003 47.9813V35.0138L1.81606 14.3295C0.784245 13.2977 0.783876 11.6143 1.81569 10.5825L4.55547 7.84273C5.58729 6.81092 7.27067 6.81092 8.30249 7.84273L22.5003 22.0405V17.0542V0.0538747C30.3333 -0.445779 42 2.55403 48.4996 8.054C54 12.7077 54 11.5542 54 21.0541C54 28.8803 46.9999 8.05401 32.5002 10.5542V10.5542Z"/>
</mask>
<path d="M32.5002 10.5542V32.0404L52.1843 51.7246C53.2161 52.7564 53.2161 54.4398 52.1843 55.4716L49.4445 58.211C48.4127 59.2428 46.7293 59.2428 45.6975 58.211L32.5002 45.0136V55.0536C32.6668 58.7205 29.9002 66.0539 17.5004 66.0539C2.00014 66.0539 0 61.0536 0 55.0536C0 49.0536 9.50023 47.0538 17.5004 47.0538L17.6617 47.0542L17.7948 47.055H17.8197L17.9743 47.0568L18.0779 47.058L18.1259 47.0587L18.274 47.0617L18.35 47.0633L18.4191 47.0652L18.5609 47.0693L18.6111 47.0708L18.6996 47.0739L18.8353 47.0791L18.8617 47.0803L18.9676 47.0848L19.0972 47.0909L19.1021 47.0912L19.2238 47.098L19.3323 47.1045L19.347 47.1052L19.4676 47.1132L19.5526 47.1192L19.5855 47.1215L19.7 47.1305L19.7631 47.1358L19.8123 47.14L19.9211 47.1498L19.9642 47.154L20.0277 47.1604L20.1313 47.1714L20.1558 47.174L20.2322 47.1827L20.3305 47.1944L20.3384 47.1955L20.4261 47.2069L20.5119 47.2186L20.5194 47.2194L20.6098 47.2326L20.677 47.2428L20.6978 47.2462L20.7832 47.2602L20.8335 47.2689L20.8664 47.2745C21.0527 47.3074 21.2202 47.3441 21.3706 47.383L21.3785 47.3849L21.3812 47.3857L21.3846 47.3864L21.4961 47.417L21.5082 47.4204C21.5784 47.4408 21.6442 47.462 21.7062 47.4832L21.7088 47.4839L21.7368 47.4938L21.789 47.5127L21.8052 47.5187L21.8392 47.5319L21.8872 47.5516L21.8948 47.5546L21.9042 47.5588L21.978 47.5913L22.0207 47.6117L22.0551 47.6287L22.0615 47.6321L22.1208 47.6639L22.1265 47.6669L22.1382 47.6737C22.1991 47.7084 22.2531 47.7443 22.3007 47.7806L22.3064 47.7852L22.3548 47.8245L22.3555 47.8252L22.4001 47.866L22.4031 47.8687L22.4364 47.9035L22.4402 47.9072L22.4459 47.9137L22.4651 47.9359L22.4757 47.9488L22.4833 47.9586L22.5003 47.9813V35.0138L1.81606 14.3295C0.784245 13.2977 0.783876 11.6143 1.81569 10.5825L4.55547 7.84273C5.58729 6.81092 7.27067 6.81092 8.30249 7.84273L22.5003 22.0405V17.0542V0.0538747C30.3333 -0.445779 42 2.55403 48.4996 8.054C54 12.7077 54 11.5542 54 21.0541C54 28.8803 46.9999 8.05401 32.5002 10.5542V10.5542Z" fill="#E00000" stroke="black" stroke-width="2" mask="url(#path-1-inside-1_33_27)"/>
</svg>
