<svg width="66" height="61" viewBox="0 0 66 61" fill="none" xmlns="http://www.w3.org/2000/svg">
<path fill-rule="evenodd" clip-rule="evenodd" d="M18.7618 12.6894L17.0722 10.8896C16.5743 10.3592 16.3474 9.71346 16.4042 8.98835C16.461 8.2633 16.7855 7.66066 17.3599 7.21411C22.5205 3.20241 28.8928 1 35.4822 1C51.7844 1 65 14.2076 65 30.5C65 46.7924 51.7844 60 35.4822 60C19.1801 60 5.96448 46.7924 5.96448 30.5H2.00218C1.61225 30.5 1.27835 30.2923 1.10612 29.9427C0.933963 29.593 0.972956 29.2018 1.21084 28.893L4.76473 24.2789L8.76495 19.0854C8.96034 18.8317 9.23601 18.6961 9.55637 18.6961C9.87672 18.6961 10.1524 18.8317 10.3478 19.0854L14.348 24.2789L17.9019 28.893C18.1397 29.2018 18.1788 29.593 18.0066 29.9427C17.8344 30.2923 17.5005 30.5 17.1105 30.5H13.4135C13.4135 42.6809 23.294 52.5555 35.4822 52.5555C47.6704 52.5555 57.551 42.6809 57.551 30.5C57.551 18.3191 47.6704 8.44455 35.4822 8.44455C30.4489 8.44455 25.8098 10.1294 22.0971 12.9646C21.0753 13.745 19.6418 13.6268 18.7618 12.6894V12.6894Z" fill="white" stroke="#2B2A29" stroke-miterlimit="22.9256"/>
</svg>
