<svg width="63" height="72" viewBox="0 0 63 72" fill="none" xmlns="http://www.w3.org/2000/svg">
<path fill-rule="evenodd" clip-rule="evenodd" d="M3.05273 3.77597L7.56881 1.48262C9.52883 0.487228 12.0504 1.08155 13.1821 2.80553L27.9414 25.2907C28.6958 26.4401 29.9913 27.0979 31.5001 27.0979C33.0089 27.0979 34.3043 26.4401 35.0587 25.2907L49.8179 2.80564C50.9496 1.08155 53.4713 0.487228 55.4313 1.48262L59.9473 3.77597C61.9073 4.77136 62.583 6.98932 61.4513 8.7133L39.9212 41.5138C39.5439 42.0885 39.3706 42.6575 39.3706 43.321V67.3856C39.3706 69.3764 37.5247 71 35.2613 71H27.5497C25.2863 71 23.4404 69.3764 23.4404 67.3856V43.0332C23.4404 42.3696 23.2671 41.8007 22.8898 41.226L1.54869 8.7133C0.417023 6.98932 1.09271 4.77136 3.05273 3.77597V3.77597Z" fill="white" stroke="#2B2A29" stroke-miterlimit="22.9256"/>
</svg>
