<?xml version="1.0" encoding="UTF-8"?>
<svg id="_Слой_1" data-name="Слой 1" xmlns="http://www.w3.org/2000/svg" viewBox="0 0 375.5 415.82">
  <defs>
    <style>
      .cls-1 {
        fill: #797979;
      }

      .cls-2 {
        fill: #da6113;
      }

      .cls-3 {
        fill: #842911;
      }

      .cls-4 {
        fill: #7a230f;
      }

      .cls-5 {
        fill: #6f3614;
      }
    </style>
  </defs>
  <path class="cls-5" d="M190.49,209.44c14.21-17.23,27.16-35,39.16-53.48,26.47-40.76,46.96-84.41,62.81-130.29,3.02-8.74,7.49-11.83,16.84-11.81,11.93,.02,23.86,.07,35.79,.12,12.17,.06,18.61,9.59,14.54,21.07-9.46,26.66-20.68,52.54-33.47,77.78-21.6,42.63-48.8,81.4-80.25,117.27-6.67,7.61-13.29,15.25-20.01,22.8-1.36,1.53-1.88,3.09-1.88,5.13,.05,43.72,0,87.44,.08,131.16,.01,6.73-2.29,11.89-8.47,14.96-2.09,1.04-4.36,1.37-6.7,1.37-13.24-.02-26.47,0-39.71-.01-9.45,0-15.61-6.14-15.61-15.59,0-45.02-.02-90.05,.05-135.07,0-2.36-.62-4.11-2.18-5.88-19.2-21.67-38.19-43.5-54.95-67.18C65.2,137.55,40.36,89.98,22.24,38.89c-.83-2.35-1.84-4.66-2.43-7.08-2.18-9.05,4.25-17.73,13.58-17.88,13.63-.23,27.27-.15,40.91,0,6.45,.07,11.23,3.94,13.57,10.42,6.9,19.16,14,38.25,22.44,56.8,20.74,45.59,46.9,87.81,78.61,126.59,.44,.54,.94,1.03,1.56,1.7Zm-56.88,12.03l-.03-.04c-.12,.61,.19,1.03,.64,1.38,.39,.74,1,1.09,1.84,1h-.02c-.04,.53,.07,.99,.6,1.25,2.89,4.46,6.59,8.24,10.2,12.09,.39,.39,.77,.77,1.16,1.16,1.99,3.38,4.94,5.96,7.49,8.86,1.55,1.77,2.29,3.47,2.28,5.86-.07,34.55-.05,69.09-.05,103.64,0,11.02-.02,22.03,.01,33.05,.02,4.46,1.37,8.26,5.72,10.37,.39,.04,.77,.08,1.16,.12,2.02,1.8,4.47,.94,6.76,1.11,.48,0,.95,0,1.43,0,2.96,0,5.91,.02,8.87,.03,.84,0,1.67,0,2.51,0,7.6,0,15.19,0,22.79,0,.63,0,1.25,0,1.88,0,1.86,.08,3.63-.22,5.23-1.23,.63-.33,1.27-.66,1.9-1,2.84-2.36,3.81-5.42,3.8-9.05-.07-16.74-.04-33.48-.01-50.22,0-1.49,.24-2.98,.36-4.48,.05-2.82,.44-5.64-.21-8.44-.06-1.3-.16-2.6-.16-3.89-.01-19.93,.17-39.85-.11-59.78-.09-6.51,.73-12.26,6.1-16.55,.55-.65,1.1-1.31,1.65-1.96,4.74-5.24,9.49-10.48,13.79-16.09,.58-.19,.7-.66,.7-1.19h0c3.94-2.82,6.87-6.58,9.62-10.5l.94-.94c.09-.08,.18-.17,.26-.26,.64-.81,1.67-1.45,1.23-2.74l-.02,.02c1.53,.21,2-1.13,2.69-1.98,14.15-17.39,27.37-35.45,39.52-54.29,13.08-20.29,24.69-41.37,34.92-63.23,.37-.79,.9-1.56,.61-2.59h-12.58c-.44-.03-.88-.07-1.32-.1-5.44-.04-10.87-.08-16.31-.12-.25-.27-.44-.18-.6,.11-.15,.05-.31,.09-.47,.11-.61-.11-1.08-.99-1.82-.31-8.51,.04-17.03,.12-25.54,.1-1.69,0-2.69,.38-3.46,2.07-6.17,13.47-13.26,26.47-20.53,39.38-7.8,13.87-16.76,27.02-25.13,40.54-.19,.28-.38,.56-.58,.84-.05,.31-.1,.62-.15,.94-.17,.22-.35,.44-.52,.66h.03c-2.03-.03-2,1.9-2.85,2.99-8.05,10.78-15.96,21.66-24.56,32.03-5.17,6.23-5.06,6.32-9.95-.3-.35-.61-.86-1-1.57-1.1-.72-2.4-2.64-3.99-4.11-5.85-21.93-27.67-41.12-57.11-57.57-88.34-5.03-9.55-9.73-19.29-14.5-28.97-.7-1.43-1.56-2.06-3.16-2.21-5.3-.49-10.6-.11-15.9-.32-.67,0-1.35,.02-2.02,.03-5.12,0-10.25,0-15.37-.01l-1.4-.03h-24.91c2.78,8.98,8.06,16.82,12.15,25.2,13.56,27.73,30.11,53.72,48.41,78.57,3.42,4.64,6.54,9.54,10.75,13.57l-.02-.02c.09,1.2,.84,1.9,1.83,2.42l-.03-.02c-.02,.49,.02,.96,.56,1.18,1.36,.61,1.89,1.89,2.5,3.11,.39,.49,.78,.97,1.17,1.46l.07,.12c3.61,4.05,6.51,8.72,10.75,12.22l-.02-.02c.03,.39,.2,.64,.63,.62ZM77.65,19.28c-.16-.18-.32-.36-.49-.54-.47-.02-.94-.04-1.41-.06-.86-.63-1.86-.63-2.87-.62-4.6,.03-9.19,.03-13.79,.05-.7,0-1.4,.01-2.1,.02-3.09,0-6.18,0-9.27,.01-.48-.02-.96-.04-1.44-.06-4.11,0-8.22-.11-12.33,.01-4.11,.12-7.32,1.98-9.27,5.66-1.91,3.6-1.59,7.25,.64,10.53,1.4,2.07,2.99,4.01,4.05,6.29,.5,1.08,1.18,1.26,2.39,1.16,4.89-.41,9.79-.57,14.68-.91,4.39-.31,8.77-.73,13.15-1.11,.45-.03,.9-.06,1.35-.09,1.12,.01,2.23,.02,3.35,.03,.86-.02,1.78,.32,2.49-.49,5.25-.27,10.51-.42,15.75-.84,5.62-.45,5.62-.56,3.44-5.67,.22-1.36,.07-2.63-.91-3.69-.55-1.59-.95-3.26-1.69-4.76-1.2-2.42-2.63-4.72-5.76-4.97l.05,.02Zm216,26.46c.49,.74,1.24,.58,1.95,.55,3.72-.18,7.38,1.05,11.12,.54,.54,.21,1.08,.41,1.62,.62,2.3,.09,4.6,.1,6.89,.27,3.53,.26,7.35,2,9.66-2.28,1.36,1-2.35,3.01,.99,3.32,4.47,.41,8.94,.76,13.41,1.13,.48,0,.96,0,1.45,0,3.9,1.3,6.71,.17,9.1-3.29,3.71-5.38,5.51-11.43,6.97-17.64,.39-1.67-.13-3.38-1.17-4.83-.25-.24-.5-.49-.75-.73-1.63-4.44-5.51-5.13-9.41-5.23-7.38-.18-14.77-.04-22.15-.03-.48-.02-.95-.04-1.43-.06-4.37,0-8.73,0-13.1,0-.84,0-1.68-.01-2.51-.02-4.88,.55-7.93,3.27-9.52,7.87-1.86,5.36-3.81,10.69-5.76,16.02-1.43,3.92-1.46,3.91,2.66,3.78ZM95.13,81.22c3.36,0,5.67-.07,7.97,.02,1.9,.07,2.57-.3,1.64-2.35-5.36-11.74-10.16-23.71-14.5-35.86-.84-2.36-2.05-2.98-4.4-2.78-8.16,.69-16.34,1.25-24.51,1.79-10.17,.67-20.35,1.3-30.52,1.89-1.63,.09-2.12,.48-1.48,2.17,4.12,10.95,8.53,21.77,13.23,32.48,.66,1.51,1.53,2.02,3.17,2.03,16.82,.1,33.64-.24,49.4,.6Zm176.82,6.9c.57,.18,.75,.28,.94,.28,19.54,.03,39.07,.03,58.61,.1,1.62,0,2.29-.76,2.85-2.08,1.42-3.31,2.97-6.56,4.37-9.87,3.25-7.72,6.45-15.47,9.8-23.53-2.51-.25-4.57-.48-6.64-.67-8.15-.74-16.3-1.51-24.45-2.19-8.76-.73-17.53-1.32-26.29-2.07-1.87-.16-2.67,.56-3.24,2.25-.99,2.94-2.17,5.81-3.34,8.68-3.95,9.71-8.04,19.36-12.6,29.09Z"/>
  <path class="cls-2" d="M241.2,228.65c-4.3,5.61-9.05,10.85-13.79,16.09,.07-4.52-2.4-8.97-.06-13.92-1.57,1.18-3.07,2.34-2.58,3.75,1.38,4.01,.71,8.1,.99,12.14-5.38,4.29-6.19,10.04-6.1,16.55,.27,19.92,.1,39.85,.11,59.78,0,1.3,.1,2.6,.16,3.89-3.74-2.49-4.67-2.25-6.96,1.8-.62,1.11-1.24,2.22-1.86,3.33-3.89,1.34-5.74,.15-5.32-3.84,.39-3.73-.32-8.31,5.91-9.11-3.55-1.03-5.52-.05-6.3,2.85-.59,2.2-1.05,4.5-1.11,6.77-.05,1.98,.47,4.05,2.71,4.92,1.77,.69,3.32,.39,4.44-1.27,1.96-.67,2.17-2.75,3.3-4.08,.62-.73,1.17-1.83,2.38-1.42,.98,.33,1.04,1.42,1.21,2.26,.51,2.41-.3,4.76-.55,7.13-.6,5.87-1.42,11.68-4.87,16.76-1.76,2.59-2.63,5.54-2.97,8.69-1.4,13.19-2.79,26.37-3,39.65-7.6,0-15.19,0-22.79,0-.43-5.26-.64-10.55-1.95-15.68-.3-1.18-.05-3.51-1.9-3.08-1.66,.38-.38,2.27-.13,3.36,1.17,5.08,1.87,10.18,1.47,15.41-2.96,0-5.91-.02-8.87-.03-.21-3.94,1.1-7.69,1.44-11.57,.18-2.08,.37-4.11-.28-6.15-.63,5.97-2.02,11.78-2.59,17.71-2.29-.17-4.74,.69-6.76-1.11,.25-6.42,.49-12.85,.73-19.27,.63-5.55,1.7-11.09,1.8-16.65,.26-14.31,.08-28.63,.08-42.95,.04-.88,.1-1.76,.12-2.64,.04-1.96-.58-3.84-2.72-3.83-2.2,.01-1.29,2.18-1.55,3.49-1.41-1.87-.91-3.82,.04-5.58,2.88-5.37,4.02-11.07,3.53-17.11-.82-10.06-1.54-20.13-2.61-30.16-.27-2.52,.34-5.21-.78-7.8-1.05,.8-.75,1.67-.7,2.4,.65,8.37,1.43,16.72,2.03,25.09,.69,9.65,1.93,19.35-3.28,28.39-1.64,2.85-.64,5.47,2.13,7.33-.13-.9-.25-1.75-.37-2.6,3.46-1.54,3.17,.9,3.18,3.01-.07,13.91,.02,27.83-.27,41.74-.13,5.96-1.04,11.91-1.6,17.86-.3,6.38-.61,12.77-.91,19.15-4.35-2.11-5.7-5.91-5.72-10.37-.04-11.02-.01-22.03-.01-33.05,0-34.55-.02-69.09,.05-103.64,0-2.39-.73-4.09-2.28-5.86-2.55-2.9-5.5-5.48-7.49-8.86,.42-4.02-1.14-7.55-2.5-11.14-.69,3.52,1.32,6.6,1.33,9.98-3.61-3.85-7.31-7.64-10.2-12.09-.02-.5-.11-.97-.6-1.24,0,0,.02,0,.02,0-2.33-5.75-4.59-11.52-7.01-17.22-.97-2.3-2.23-4.48-3.43-6.68-.56-1.04-1.45-1.81-2.7-1.25-1.37,.61-.96,1.94-.62,2.89,.43,1.2,1.07,2.42,1.93,3.35,1.29,1.39,1.53,.3,1.53-.9h.01c3.79,5.02,5.45,10.96,7.21,16.86-4.24-3.49-7.14-8.17-10.75-12.21,1.29-.25,2.7,.67,4.37-.59-4.46-.69-5.57-4.72-8.44-7.25-.09,.88-.15,1.44-.21,2-.99-.51-1.74-1.22-1.83-2.42,1.19-.01,2.36,.04,1.12-1.68-.94-1.3-1.76-2.58-.35-4.29,2.03-2.47,1.52-5.36-1.47-7.99,1.37,3.23,2.21,6.03-.4,8.63-.57,.56-.11,1.71,.3,2.56,.41,.88,1.2,1.66,.83,2.78-4.2-4.03-7.33-8.93-10.75-13.57-18.3-24.85-34.85-50.84-48.41-78.57-4.1-8.37-9.37-16.22-12.15-25.2,8.29,0,16.6,0,24.91,0,.65,2.81,1.12,5.64,1.25,8.54,.14,2.92,1.77,4.54,4.78,4.83-.63-.7-1.2-1.34-1.78-1.97,2.62-1.91,3.75-.74,4.76,1.91,.87,2.29,2.41,4.33,3.65,6.49,.22-.12,.44-.25,.66-.37-1.58-3.17-3.18-6.33-4.74-9.5-.81-1.65-2.11-2.59-3.85-2.03-2.28,.74-.15,2.36-.45,3.53-1.68-.87-1.87-2.44-1.87-4.06,0-2.5-.44-4.92-1.02-7.33,5.12,0,10.25,0,15.37,.01,.73,.74,.89,2.1,2.39,2.32-.14-.91-.25-1.63-.37-2.35,5.3,.22,10.6-.16,15.9,.32,1.6,.15,2.46,.78,3.16,2.21,4.78,9.69,9.47,19.42,14.5,28.97,16.45,31.23,35.65,60.67,57.57,88.34,1.47,1.86,3.39,3.45,4.11,5.85-2.54,3.86-5.03,7.62-5.37,12.57-.34,4.85-2.21,9.49-2.22,14.48,0,7.62,1.83,15.08,1.53,22.74-.31,7.6-.31,15.24,.02,22.84,.55,12.98,1.9,25.9,3.3,38.81,1.15,10.65,1.38,21.37,1.31,32.08,0,.66-.45,1.66,.92,1.93,.09-.5,.25-.96,.26-1.42,.35-13.73-.54-27.41-2.04-41.04-1.31-11.83-2.1-23.69-2.71-35.57-.41-8,.98-15.99,.04-23.99-.53-4.46-.93-8.94-1.26-13.42-.57-7.61,1.74-14.87,3.22-22.18,.49-2.43,2.08-5.14,4.57-6.73,4.89,6.63,4.78,6.54,9.95,.3,8.59-10.37,16.5-21.25,24.55-32.02-.31,1.05-.41,2.22-.94,3.13-3.68,6.3-6.97,12.8-10.13,19.36-1.6,3.32-3.3,6.58-5.79,9.93,1.51-.11,1.8-.64,2.17-1.11,3.36-4.29,5.38-9.31,7.65-14.18,3.16-6.78,7.51-12.97,9.9-20.13,0,0-.03,0-.03,0,.17-.22,.35-.44,.52-.66,.05-.31,.1-.62,.15-.94,.19-.28,.38-.56,.58-.83,8.37-13.52,17.33-26.67,25.13-40.54,7.26-12.91,14.36-25.91,20.53-39.38,.77-1.68,1.78-2.07,3.46-2.07,8.51,.02,17.03-.06,25.54-.1-.28,1.27-1.56,1.47-2.37,2.17-2.32,2.01-3.18,4.37-1.72,7.73,.17-1.93,.84-3.18,2.59-2.16,1.79,1.05,.41,2.25-.18,3.29-3.99,7.06-7.97,14.12-12.02,21.14-4.9,8.48-9.58,17.08-15.55,24.92-5.82,7.64-10.66,15.96-15.52,24.24-1.26,2.14-2.29,4.48-1.76,7.16,1.45-3.26,2.76-6.5,4.6-9.56,5.98-9.96,12.72-19.39,19.18-29.02,8.47-12.63,14.6-26.67,22.88-39.44,.54-.83,.99-1.72,1.03-2.78,.11-2.48-1-3.29-3.46-2.46-.12-.09-.24-.19-.36-.29,.56-2.44,3.58-2.51,4.47-4.63,.16-.03,.31-.06,.47-.11,.2-.04,.4-.07,.6-.11,5.44,.04,10.87,.08,16.31,.12-6.78,16.57-14.44,32.71-23.02,48.43,9.94-15.2,17.36-31.65,24.34-48.33h12.58c.29,1.03-.24,1.8-.61,2.59-10.23,21.85-21.84,42.94-34.92,63.23-12.16,18.85-25.37,36.91-39.52,54.29-.69,.85-1.16,2.18-2.69,1.98,.13-.47,.18-1,.42-1.41,4.47-7.69,8.92-15.39,13.48-23.03,4.56-7.65,9.11-15.28,11.49-23.96,.26-.96,.83-2.17-.58-2.45-1.16-.23-1.16,1.08-1.4,1.92-1.3,4.52-2.87,8.95-5.24,13.03-6.23,10.71-12.46,21.42-18.81,32.05-3.68,6.16-7.58,12.19-11.38,18.28,0,0,0,0,0,0-.23,.4-.47,.8-.7,1.19ZM90.4,87.13c-.25-.42-.39-1.35-1.02-.81-.57,.49,.23,.89,.65,1.21,1.05,2.63,2.89,4.7,4.73,6.79-1.04-2.66-2.35-5.14-4.36-7.18Zm56.49,125.24c-.07-.81,0-1.68-1.16-2.13-.09,1.04,.26,1.73,.99,2.28,.97,4.66,3.06,8.72,5.95,12.36l.72-.37c-2.17-4.05-4.34-8.09-6.51-12.14Zm76.25-5.47c.1,.11,.21,.21,.31,.32-.08,1.39-.95,2.36-1.71,3.41-3.69,5.08-7.36,10.18-11.01,15.29-.4,.56-1.21,1.17-.08,2.21,5.75-8.06,11.95-15.71,16.84-24.27,.6-1.06,1.05-2.32-.31-3.18-1.32-.84-2.19,.13-3.08,.99-1.13,1.09-1.65,2.48-2.04,3.92-.23,.84,.15,1.35,1.08,1.31Zm-9.33,115.11c.93-3.25,.4-6.57,.32-9.83-.26-9.58,1.22-19.23-1.14-28.72-1.2-4.82-.3-9.53,.79-14.23,.23-1.01,.77-1.99-.17-3.71-1.89,5.92-2.94,11.32-2.12,16.89,.91,6.24,1.8,12.44,1.61,18.79-.2,6.91-.07,13.83-.09,20.74-.65,.82-.28,2.21-1.49,2.76-.69-1-.76-3.03-2.38-2.47-1.5,.52-1.16,2.38-.95,3.71,.27,1.73,2.46,2.09,3.95,.68,1.32-1.25,1.61-2.9,1.67-4.62ZM86.15,108.22c-.71-1.63-1.21-3.39-3.32-5.12,.91,2.49,1.54,4.19,3.04,5.42,.41,2.12,1.69,3.83,2.71,5.65,4.3,7.69,8.86,15.26,12.09,23.49,3.55,9.05,8.09,17.62,12.58,26.21,1,1.91,2.29,3.6,4.48,4.37-1.11-1.85-2.68-3.41-3.63-5.28-3.64-7.13-7.72-14.06-10.67-21.52-4.62-11.68-10.61-22.62-17.29-33.22Zm146.94,115.21c1.05-.36,1.44-1.34,2.01-2.14,4.79-6.79,8.91-13.99,13.1-21.15,7.47-12.76,13.99-26.1,23.7-37.45,.64-.75,1.59-1.6,.78-3.27-4.23,5.8-8.69,11.17-12.32,17.05-6.35,10.29-12.16,20.92-18.27,31.36-3.02,5.17-6.21,10.24-9.32,15.35-.73,.59-1.56,1.12-1.51,2.44,1.31-.33,1.57-1.25,1.82-2.18Zm-33.68-.2c-.9,5.72,.79,11.15,2.24,16.52,2.03,7.55,3.8,15.1,4.13,22.94,.58,13.73-1.07,27.39-1.1,41.11,0,1.95-.92,3.51-2.44,4.61-2.51,1.82-3.49,4.42-3.53,7.29-.06,4.47,.22,8.94,.33,13.42,.07,2.72,.53,5.38,1.48,7.93,.46,1.24,1.01,2.52,2.83,2.59-1.78-2.08-2.66-4.55-2.84-7.08-.4-5.58-.57-11.19-.63-16.78-.03-2.1,.44-4.41,2.37-5.6,3.5-2.17,3.94-5.45,4.08-9.06,.25-6.6,.09-13.2,.43-19.81,.48-9.58,.63-19.22-.88-28.76-1.55-9.84-5.43-19.23-5.76-29.31,.64-1.77,1.3-3.54,1.92-5.32,.17-.49,.14-.99-.31-1.35-.33-.26-.68-.32-1.07-.06-1.08,.71-1.95,5.39-1.23,6.72Zm-34.79-2.41c-.44-.66-.85-1.23-1.2-1.83-2.63-4.6-5.68-9.02-7.78-13.85-7.72-17.74-17.41-34.45-26.32-51.58-2.59-4.98-5.74-9.62-9.68-13.67-.52-.54-1.13-1.6-1.91-1.03-1.06,.77-.04,1.67,.49,2.27,2.27,2.54,4.55,5.09,6.28,8.02,7.58,12.84,14.21,26.2,21.19,39.36,4.92,9.26,8.57,19.17,14.09,28.14,.89,1.45,1.79,2.89,2.74,4.29,.36,.53,.97,.72,1.6,.48,.2-.08,.32-.37,.5-.6Zm55.9-11.63c-1.43-2.18-.73-4.24,.13-6.25,1.21-2.85,2.46-5.7,3.76-8.51,.58-1.25,1.39-2.27,3.04-1.6,2.18,.88,3.75-.18,4.92-1.79,1.29-1.77,2.51-3.65,3.41-5.64,6.52-14.44,14.59-28.04,22.57-41.69,5.86-10.01,12.1-19.81,17.07-30.33,.54-1.15,1.26-2.28,1.09-3.9-1.32,.76-1.47,1.83-1.88,2.69-2.68,5.61-5.57,11.11-8.73,16.45-7.91,13.34-16,26.58-23.27,40.29-3.05,5.75-6.11,11.48-8.63,17.5-1.26,3.01-3.06,5.78-7.18,4.94-1.37-.28-2.39,.51-2.97,1.62-1.97,3.81-4.1,7.58-5.2,11.77-.45,1.71-.6,3.61,1.89,4.46Zm-32.2,19.92c0-2.88,0-6.39,0-9.9,0-.87-.14-1.77-1.19-1.7-1.01,.07-.65,1.07-.65,1.68-.02,3.41-.02,6.82,.04,10.23,.13,6.63-.15,13.26-1.87,19.67-1.84,6.89-1.92,13.85-1.79,20.87,.02,.9-.48,2.43,.92,2.44,1.41,0,.93-1.53,.92-2.42-.09-6.12-.22-12.26,1.36-18.22,1.92-7.24,2.62-14.56,2.26-22.64ZM75.04,115.73c13.95,23,24.21,48.15,40.26,69.94-15.07-22.37-25.33-47.49-40.26-69.94Zm70.17,94.18c.57-1.98-.04-2.77-.36-3.55-3.41-8.35-7.65-16.3-11.86-24.26-5.84-11.04-12.83-21.49-16.94-33.42-.71-2.06-1.16-4.4-3.53-6.45,7.8,24.33,23.44,44.03,32.69,67.68Zm29.1,2.8c-6.22-8.59-12.62-17.06-16.25-27.19,2.61,10.74,9.07,19.18,16.25,27.19ZM106.53,115.3c.25-.17,.5-.34,.75-.51-3.11-6.16-6.58-12.1-10.34-17.87l-.79,.46c3.46,5.97,6.92,11.95,10.38,17.92Zm87.84,104.96l.74,.67c2.86-2.83,5.62-5.75,7.85-9.11-.19-.16-.37-.32-.56-.49-2.68,2.98-5.35,5.95-8.03,8.93Zm35.88,7.56c.17-.27,.41-.67,.64-1.06-.2-.11-.55-.35-.58-.31-.31,.34-.66,.69-.8,1.11-.09,.27,.25,.42,.74,.27Zm-1.86,2.45c.16-.23,.49-.57,.66-.99,.11-.26-.14-.63-.47-.41-.37,.25-.69,.64-.89,1.03-.12,.25,.09,.54,.7,.36ZM96.19,95.82c-.16-.21-.29-.44-.48-.6-.06-.05-.39,.05-.42,.14-.13,.4,.01,.72,.46,.77,.11,.01,.25-.18,.43-.31Z"/>
  <path class="cls-1" d="M95.13,81.22c-15.75-.84-32.58-.5-49.4-.6-1.65,0-2.51-.52-3.17-2.03-4.7-10.71-9.11-21.54-13.23-32.48-.64-1.69-.15-2.08,1.48-2.17,10.18-.59,20.35-1.21,30.52-1.89,8.17-.54,16.35-1.1,24.51-1.79,2.34-.2,3.55,.42,4.4,2.78,4.34,12.15,9.13,24.12,14.5,35.86,.94,2.05,.26,2.42-1.64,2.35-2.3-.09-4.61-.02-7.97-.02Z"/>
  <path class="cls-1" d="M271.96,88.12c4.56-9.73,8.65-19.38,12.6-29.09,1.17-2.87,2.35-5.74,3.34-8.68,.57-1.69,1.38-2.41,3.24-2.25,8.76,.75,17.53,1.34,26.29,2.07,8.16,.68,16.3,1.45,24.45,2.19,2.07,.19,4.14,.41,6.64,.67-3.35,8.06-6.55,15.81-9.8,23.53-1.4,3.32-2.95,6.56-4.37,9.87-.56,1.31-1.23,2.08-2.85,2.08-19.54-.07-39.07-.08-58.61-.1-.19,0-.38-.11-.94-.28Z"/>
  <path class="cls-2" d="M323.31,18.14c7.38,0,14.77-.15,22.15,.03,3.91,.1,7.78,.78,9.41,5.23-2.64,2.31-4.84,4.98-6.8,7.88-3.89,5.75-5.4,12.62-8.8,18.6-4.47-.37-8.94-.72-13.41-1.13-3.35-.31,.36-2.32-.99-3.32-2.31,4.28-6.13,2.54-9.66,2.28-2.29-.17-4.59-.19-6.89-.27-.46-.97,.07-1.75,.52-2.52,3.53-6.03,7.09-12.04,10.61-18.08,1.6-2.75,3.39-5.44,3.86-8.7Z"/>
  <path class="cls-2" d="M59.59,39.73c-4.38,.37-8.76,.8-13.15,1.11-4.89,.34-9.8,.5-14.68,.91-1.21,.1-1.89-.09-2.39-1.16-1.06-2.28-2.64-4.22-4.05-6.29-2.23-3.28-2.54-6.93-.64-10.53,1.95-3.68,5.17-5.54,9.27-5.66,4.11-.12,8.22-.02,12.33-.01,1.54,3.83,3.67,7.32,6.24,10.53,2.76,3.45,5.09,7.17,7.06,11.12Z"/>
  <path class="cls-2" d="M220.14,335.37c-.13,1.49-.36,2.98-.36,4.48-.03,16.74-.05,33.48,.01,50.22,.01,3.63-.96,6.69-3.8,9.05-.94-.91-.57-2.07-.53-3.12,.24-6.58,.78-13.16,.59-19.75-.03-.98,.29-2.07-.84-2.88-.09,8.96-.99,17.84-1.12,26.76-1.61,1-3.37,1.31-5.23,1.23-.05-1-.09-1.99-.16-2.99-.68-10.74,1.7-21.28,2.08-31.95,.16-4.6,.95-9.13,3.4-13.2,2.52-4.17,3.91-8.68,4.44-13.55,.15-1.37-.57-3.45,1.52-4.29Z"/>
  <path class="cls-2" d="M85.96,32.68c2.17,5.11,2.18,5.22-3.44,5.67-5.24,.42-10.5,.57-15.75,.84-3.48-6.69-4.51-14.27-7.67-21.08,4.6-.01,9.19-.02,13.79-.05,1.01,0,2,0,2.87,.62,1.19,1.23,1.55,3.32,3.69,3.6l-.02-.02c-.21,1.5,.71,2.32,1.82,3.04l-.02-.03c0,.89,.46,1.46,1.22,1.83l-.02-.03c.07,.84,.4,1.5,1.23,1.83l-.02-.02c.28,1.57,1.17,2.77,2.33,3.8Z"/>
  <path class="cls-2" d="M308.79,18.09c4.37,0,8.73,0,13.1,0-.51,3.02-2.03,5.59-3.54,8.18-3.95,6.81-8.39,13.35-11.63,20.56-3.74,.51-7.39-.72-11.12-.54,1.18-3.72,2.9-7.22,4.61-10.71,2.85-5.83,5.72-11.66,8.59-17.48Z"/>
  <path class="cls-3" d="M185.36,209.88c-2.49,1.59-4.08,4.3-4.57,6.73-1.49,7.31-3.79,14.57-3.22,22.18,.33,4.48,.74,8.96,1.26,13.42,.94,8-.45,15.99-.04,23.99,.61,11.88,1.4,23.74,2.71,35.57,1.5,13.63,2.39,27.31,2.04,41.04-.01,.46-.17,.92-.26,1.42-1.37-.27-.93-1.27-.92-1.93,.07-10.72-.16-21.44-1.31-32.08-1.4-12.92-2.75-25.84-3.3-38.81-.32-7.6-.32-15.24-.02-22.84,.31-7.66-1.53-15.12-1.53-22.74,0-4.99,1.88-9.63,2.22-14.48,.34-4.95,2.83-8.71,5.37-12.57,.71,.1,1.22,.49,1.57,1.1Z"/>
  <path class="cls-2" d="M355.63,24.14c1.04,1.45,1.56,3.16,1.17,4.83-1.46,6.21-3.26,12.25-6.97,17.64-2.39,3.47-5.2,4.6-9.1,3.29,1.11-2.46,2.35-4.87,3.31-7.39,2.65-6.9,6.21-13.2,11.59-18.37Z"/>
  <path class="cls-4" d="M241.9,227.47c3.8-6.09,7.7-12.12,11.38-18.28,6.35-10.64,12.59-21.34,18.81-32.05,2.37-4.08,3.94-8.51,5.24-13.03,.24-.84,.24-2.15,1.4-1.92,1.42,.28,.85,1.49,.58,2.45-2.38,8.68-6.93,16.32-11.49,23.96-4.55,7.64-9,15.34-13.48,23.03-.24,.41-.28,.94-.42,1.41,0,0,.02-.02,.02-.02-1.25,.54-1.44,1.55-1.23,2.74-.08,.09-.17,.18-.27,.26-.65-.02-.88,.37-.94,.94-2.76,3.91-5.68,7.68-9.62,10.51Z"/>
  <path class="cls-3" d="M300.41,90.95c-.89,2.12-3.91,2.18-4.47,4.63-.41,.41-.84,1.16-.33,1.37,.72,.29,.44-.7,.7-1.08,2.46-.83,3.57-.02,3.46,2.46-.05,1.06-.49,1.95-1.03,2.78-8.28,12.77-14.41,26.81-22.88,39.44-6.46,9.63-13.2,19.06-19.18,29.02-1.84,3.06-3.15,6.31-4.6,9.56-.53-2.68,.5-5.02,1.76-7.16,4.86-8.28,9.7-16.6,15.52-24.24,5.97-7.85,10.66-16.44,15.55-24.92,4.05-7.02,8.03-14.08,12.02-21.14,.59-1.04,1.97-2.24,.18-3.29-1.74-1.02-2.41,.23-2.59,2.16-1.46-3.36-.61-5.72,1.72-7.73,.81-.7,2.08-.89,2.37-2.17,.74-.68,1.22,.2,1.82,.31Z"/>
  <path class="cls-2" d="M64.29,39.67c-1.12-.01-2.23-.02-3.35-.03-2.05-4.1-4.55-7.9-7.28-11.57-2.3-3.11-4.53-6.27-5.93-9.93,3.09,0,6.18,0,9.27-.01,.43,1.1,.85,2.21,1.3,3.31,2.43,5.94,4.16,12.1,5.98,18.24Z"/>
  <path class="cls-2" d="M293.65,45.73c-4.12,.13-4.09,.14-2.66-3.78,1.95-5.33,3.9-10.66,5.76-16.02,1.59-4.59,4.64-7.31,9.52-7.87,.2,1.74-.91,3.02-1.6,4.43-3.81,7.68-8.2,15.09-11.02,23.24Z"/>
  <path class="cls-3" d="M220.14,335.37c-2.09,.84-1.37,2.92-1.52,4.29-.53,4.87-1.92,9.38-4.44,13.55-2.45,4.07-3.24,8.59-3.4,13.2-.38,10.67-2.77,21.21-2.08,31.95,.06,1,.11,1.99,.16,2.99-.63,0-1.25,0-1.88,0,.21-13.28,1.6-26.46,3-39.65,.34-3.15,1.21-6.1,2.97-8.69,3.45-5.08,4.26-10.9,4.87-16.76,.24-2.37,1.06-4.72,.55-7.13-.18-.84-.24-1.93-1.21-2.26-1.21-.4-1.76,.69-2.38,1.42-1.14,1.33-1.34,3.41-3.3,4.08-.12-.1-.23-.2-.35-.31,.62-1.11,1.23-2.22,1.86-3.33,2.28-4.06,3.21-4.3,6.96-1.8,.66,2.8,.26,5.63,.21,8.44Z"/>
  <path class="cls-3" d="M319.1,90.94c-6.98,16.68-14.4,33.13-24.34,48.33,8.58-15.72,16.24-31.86,23.02-48.43,.44,.03,.88,.07,1.32,.1Z"/>
  <path class="cls-4" d="M293.65,45.73c2.82-8.15,7.21-15.56,11.02-23.24,.69-1.4,1.81-2.69,1.6-4.43,.84,0,1.68,.01,2.51,.02-2.86,5.83-5.74,11.65-8.59,17.48-1.71,3.5-3.43,6.99-4.61,10.71-.71,.03-1.45,.18-1.95-.55Z"/>
  <path class="cls-3" d="M222.71,175.16c-2.39,7.15-6.74,13.35-9.9,20.13-2.27,4.87-4.29,9.89-7.65,14.18-.37,.47-.67,1.01-2.17,1.11,2.49-3.34,4.19-6.61,5.79-9.93,3.17-6.56,6.46-13.06,10.13-19.36,.53-.91,.64-2.08,.94-3.13,.86-1.1,.83-3.03,2.85-3Z"/>
  <path class="cls-3" d="M125.77,204c0,1.2-.23,2.28-1.53,.9-.86-.92-1.5-2.15-1.93-3.35-.34-.95-.75-2.28,.62-2.89,1.25-.56,2.14,.22,2.7,1.25,1.19,2.2,2.46,4.38,3.43,6.68,2.41,5.71,4.68,11.48,7.01,17.22-.84,.09-1.45-.26-1.84-1-.08-.52-.07-1.08-.64-1.38,0,0,.03,.04,.03,.04-.05-.37-.2-.64-.63-.62,0,0,.02,.02,.02,.02-1.76-5.9-3.42-11.84-7.21-16.87,.15-1.5-.35-2.71-1.67-3.5-.09-.05-.61,.3-.61,.45,.07,1.51,.72,2.62,2.26,3.06Z"/>
  <path class="cls-4" d="M64.29,39.67c-1.82-6.14-3.55-12.3-5.98-18.24-.45-1.1-.87-2.21-1.3-3.31,.7,0,1.4-.01,2.1-.02,3.16,6.81,4.19,14.39,7.67,21.08-.7,.81-1.63,.46-2.49,.49Z"/>
  <path class="cls-3" d="M306.71,46.82c3.25-7.21,7.68-13.75,11.63-20.56,1.5-2.59,3.03-5.16,3.54-8.18,.48,.02,.95,.04,1.43,.06-.46,3.27-2.25,5.95-3.86,8.7-3.52,6.04-7.08,12.05-10.61,18.08-.45,.77-.98,1.55-.52,2.52-.54-.21-1.08-.41-1.62-.62Z"/>
  <path class="cls-4" d="M181.68,401.35c.41-5.22-.3-10.33-1.47-15.41-.25-1.09-1.53-2.98,.13-3.36,1.84-.42,1.59,1.9,1.9,3.08,1.31,5.14,1.52,10.43,1.95,15.68-.84,0-1.67,0-2.51,0Z"/>
  <path class="cls-3" d="M355.63,24.14c-5.38,5.17-8.94,11.46-11.59,18.37-.96,2.52-2.2,4.93-3.31,7.39-.48,0-.96,0-1.45,0,3.39-5.98,4.91-12.85,8.8-18.6,1.96-2.9,4.16-5.58,6.8-7.88,.25,.24,.5,.49,.75,.73Z"/>
  <path class="cls-3" d="M214.09,400.12c.14-8.92,1.03-17.8,1.12-26.76,1.14,.81,.82,1.9,.84,2.88,.19,6.6-.36,13.17-.59,19.75-.04,1.05-.41,2.21,.53,3.12-.64,.33-1.27,.66-1.9,1Z"/>
  <path class="cls-3" d="M47.73,18.14c1.4,3.65,3.63,6.82,5.93,9.93,2.72,3.67,5.23,7.48,7.28,11.57-.45,.03-.9,.06-1.34,.09-1.97-3.95-4.3-7.67-7.06-11.12-2.57-3.21-4.71-6.7-6.24-10.53,.48,.02,.96,.04,1.44,.06Z"/>
  <path class="cls-3" d="M171.38,401.31c.57-5.92,1.96-11.73,2.59-17.71,.65,2.04,.46,4.07,.28,6.15-.33,3.88-1.65,7.63-1.44,11.57-.48,0-.95,0-1.43,0Z"/>
  <path class="cls-4" d="M163.46,400.08c.3-6.38,.61-12.77,.91-19.15,.33,0,.65,0,.98,0-.24,6.42-.49,12.85-.73,19.27-.39-.04-.77-.08-1.16-.12Z"/>
  <path class="cls-3" d="M74,94.47c.57,.63,1.14,1.27,1.78,1.97-3.01-.29-4.65-1.91-4.78-4.83-.14-2.89-.61-5.72-1.25-8.54,.47,.01,.94,.02,1.4,.03,.58,2.41,1.02,4.83,1.02,7.33,0,1.62,.19,3.19,1.87,4.06l-.03-.03Z"/>
  <path class="cls-3" d="M225.77,246.71c-.29-4.04,.39-8.13-.99-12.14-.48-1.4,1.02-2.57,2.58-3.75-2.35,4.95,.13,9.4,.06,13.92-.55,.66-1.1,1.31-1.65,1.97Z"/>
  <path class="cls-2" d="M77.6,19.25c3.13,.24,4.56,2.55,5.76,4.97,.74,1.5,1.14,3.17,1.69,4.76-.47-.04-.94-.07-1.42-.11,0,0,.02,.02,.02,.02,.14-.98,.04-1.8-1.23-1.83,0,0,.02,.03,.02,.03,.14-.98,.09-1.82-1.22-1.83,0,0,.02,.03,.02,.03,.22-1.51-.6-2.39-1.82-3.04,0,0,.02,.02,.02,.02,0-1.38-1.35-1.94-1.84-3.02Z"/>
  <path class="cls-3" d="M117.95,202.8c.06-.56,.12-1.12,.21-2,2.87,2.53,3.99,6.56,8.44,7.25-1.67,1.26-3.08,.35-4.37,.59,0,0-.07-.12-.07-.12,.17-.94-.13-1.5-1.17-1.46-.61-1.22-1.14-2.5-2.5-3.11,0-.48,.06-1-.56-1.18l.03,.02Z"/>
  <path class="cls-3" d="M146.85,237.15c-.01-3.39-2.03-6.46-1.33-9.98,1.36,3.59,2.92,7.12,2.5,11.14-.39-.39-.77-.77-1.16-1.16Z"/>
  <path class="cls-3" d="M83.63,28.87c.47,.04,.94,.07,1.42,.11,.98,1.06,1.13,2.33,.92,3.69-1.16-1.03-2.05-2.23-2.33-3.8Z"/>
  <path class="cls-3" d="M77.6,19.25c.5,1.08,1.84,1.64,1.84,3.02-2.13-.27-2.49-2.36-3.69-3.6,.47,.02,.94,.04,1.41,.06,.16,.18,.32,.36,.49,.54,0,0-.05-.02-.05-.02Z"/>
  <path class="cls-3" d="M88.54,83.09c.11,.72,.22,1.44,.37,2.35-1.5-.22-1.65-1.58-2.39-2.32,.67,0,1.35-.02,2.02-.03Z"/>
  <path class="cls-2" d="M252.73,215.76c-.21-1.19-.03-2.21,1.23-2.74,.44,1.3-.59,1.93-1.23,2.74Z"/>
  <path class="cls-2" d="M120.99,207.07c1.04-.04,1.34,.53,1.17,1.46-.39-.49-.78-.97-1.17-1.46Z"/>
  <path class="cls-3" d="M136.04,223.81c.5,.27,.58,.74,.6,1.24-.53-.25-.64-.71-.6-1.24Z"/>
  <path class="cls-2" d="M133.58,221.43c.57,.29,.56,.85,.64,1.38-.45-.35-.76-.76-.64-1.38Z"/>
  <path class="cls-4" d="M241.2,228.65c.23-.4,.47-.8,.7-1.19,0,.53-.12,1-.7,1.19Z"/>
  <path class="cls-2" d="M117.93,202.78c.63,.19,.57,.7,.56,1.18-.55-.22-.58-.69-.56-1.18Z"/>
  <path class="cls-3" d="M223.93,172.73c-.19,.28-.38,.55-.58,.83,.19-.28,.38-.56,.58-.83Z"/>
  <path class="cls-2" d="M132.97,220.84c.43-.02,.58,.26,.63,.62-.43,.01-.61-.23-.63-.62Z"/>
  <path class="cls-2" d="M251.52,216.96c.06-.57,.29-.96,.94-.94-.31,.31-.63,.63-.94,.94Z"/>
  <path class="cls-2" d="M77.65,19.28c-.16-.18-.32-.36-.49-.54,.16,.18,.32,.36,.49,.54Z"/>
  <path class="cls-3" d="M301.47,90.73c-.2,.04-.4,.07-.6,.11,.15-.29,.34-.38,.6-.11Z"/>
  <path class="cls-3" d="M223.2,174.5c-.17,.22-.35,.44-.52,.66,.17-.22,.35-.44,.52-.66Z"/>
  <path class="cls-4" d="M164.62,220.82c-.18,.23-.3,.52-.5,.6-.63,.24-1.24,.05-1.6-.48-.95-1.4-1.85-2.85-2.74-4.29-5.52-8.97-9.17-18.88-14.09-28.14-6.99-13.16-13.62-26.52-21.19-39.36-1.73-2.93-4.01-5.49-6.28-8.02-.53-.59-1.55-1.49-.49-2.27,.78-.57,1.39,.49,1.91,1.03,3.94,4.05,7.09,8.69,9.68,13.67,8.9,17.12,18.6,33.84,26.32,51.58,2.1,4.83,5.15,9.25,7.78,13.85,.34,.6,.76,1.17,1.2,1.83Z"/>
  <path class="cls-3" d="M220.53,209.19c-2.49-.85-2.33-2.75-1.89-4.46,1.09-4.19,3.22-7.95,5.2-11.77,.57-1.1,1.59-1.9,2.97-1.62,4.12,.84,5.92-1.93,7.18-4.94,2.52-6.02,5.59-11.75,8.63-17.5,7.27-13.71,15.37-26.95,23.27-40.29,3.17-5.34,6.06-10.84,8.73-16.45,.41-.86,.56-1.93,1.88-2.69,.17,1.62-.55,2.75-1.09,3.9-4.96,10.52-11.21,20.32-17.07,30.33-7.98,13.65-16.05,27.24-22.57,41.69-.9,1.99-2.12,3.87-3.41,5.64-1.17,1.6-2.74,2.67-4.92,1.79-1.65-.67-2.46,.36-3.04,1.6-1.3,2.82-2.54,5.66-3.76,8.51-.86,2.02-1.56,4.07-.13,6.25Z"/>
  <path class="cls-3" d="M200.11,223.24c.33,10.08,4.21,19.47,5.76,29.31,1.5,9.54,1.36,19.18,.88,28.76-.33,6.61-.17,13.21-.43,19.81-.14,3.61-.57,6.89-4.08,9.06-1.92,1.19-2.39,3.5-2.37,5.6,.07,5.6,.23,11.2,.63,16.78,.18,2.53,1.06,5,2.84,7.08-1.81-.07-2.36-1.35-2.83-2.59-.95-2.55-1.41-5.2-1.48-7.93-.12-4.47-.39-8.95-.33-13.42,.04-2.87,1.01-5.47,3.53-7.29,1.52-1.1,2.44-2.66,2.44-4.61,.03-13.71,1.68-27.38,1.1-41.11-.33-7.84-2.1-15.4-4.13-22.94-1.45-5.37-3.13-10.79-2.24-16.52,.23,0,.46,0,.7,0Z"/>
  <path class="cls-4" d="M188.33,229.11c.37,8.08-.33,15.41-2.26,22.64-1.58,5.96-1.45,12.1-1.36,18.22,.01,.9,.49,2.43-.92,2.42-1.4,0-.9-1.54-.92-2.44-.12-7.01-.05-13.98,1.79-20.87,1.71-6.41,2-13.04,1.87-19.67-.07-3.41-.06-6.82-.04-10.23,0-.61-.36-1.61,.65-1.68,1.04-.07,1.19,.83,1.19,1.7,0,3.51,0,7.02,0,9.9Z"/>
  <path class="cls-3" d="M232.79,223.17c3.11-5.11,6.3-10.18,9.32-15.35,6.11-10.44,11.91-21.07,18.27-31.36,3.63-5.88,8.09-11.25,12.32-17.05,.8,1.67-.14,2.53-.78,3.27-9.71,11.34-16.23,24.69-23.7,37.45-4.19,7.15-8.31,14.36-13.1,21.15-.57,.81-.97,1.78-2.01,2.14-.11-.08-.21-.17-.31-.25Z"/>
  <path class="cls-3" d="M75.04,115.73c14.93,22.46,25.19,47.58,40.26,69.94-16.05-21.8-26.31-46.95-40.26-69.94Z"/>
  <path class="cls-3" d="M163.06,318.32c.12,.85,.24,1.69,.37,2.6-2.77-1.87-3.78-4.48-2.13-7.33,5.21-9.04,3.97-18.74,3.28-28.39-.6-8.37-1.37-16.73-2.03-25.09-.06-.73-.35-1.6,.7-2.4,1.13,2.59,.52,5.28,.78,7.8,1.07,10.03,1.79,20.1,2.61,30.16,.49,6.04-.65,11.73-3.53,17.11-.94,1.76-1.45,3.71-.04,5.58,0,0-.03-.03-.03-.03Z"/>
  <path class="cls-3" d="M145.2,209.91c-9.25-23.65-24.9-43.35-32.69-67.68,2.37,2.05,2.82,4.39,3.53,6.45,4.12,11.93,11.11,22.38,16.94,33.42,4.21,7.96,8.45,15.91,11.86,24.26,.32,.78,.92,1.58,.36,3.55Z"/>
  <path class="cls-3" d="M86.16,108.22c6.67,10.6,12.67,21.54,17.29,33.22,2.95,7.46,7.03,14.39,10.67,21.52,.95,1.87,2.52,3.43,3.63,5.28-2.19-.77-3.48-2.46-4.48-4.37-4.49-8.59-9.03-17.16-12.58-26.21-3.23-8.23-7.79-15.8-12.09-23.49-1.02-1.83-2.3-3.53-2.71-5.65,.09-.1,.18-.2,.28-.3Z"/>
  <path class="cls-3" d="M165.36,380.93c-.33,0-.65,0-.98,0,.56-5.95,1.48-11.9,1.6-17.86,.29-13.91,.2-27.82,.27-41.74,.33,0,.66,0,.99,0,0,14.32,.18,28.63-.08,42.95-.1,5.56-1.17,11.1-1.8,16.65Z"/>
  <path class="cls-3" d="M213.03,321.94c.01-6.91-.12-13.83,.09-20.74,.19-6.35-.7-12.55-1.61-18.79-.81-5.57,.23-10.98,2.12-16.89,.95,1.72,.41,2.7,.17,3.71-1.09,4.69-1.99,9.41-.79,14.23,2.36,9.49,.88,19.15,1.14,28.72,.09,3.26,.61,6.59-.32,9.83-.26-.02-.53-.04-.79-.06Z"/>
  <path class="cls-3" d="M223.15,206.89c-.93,.03-1.32-.47-1.08-1.31,.4-1.44,.91-2.83,2.04-3.92,.89-.86,1.76-1.83,3.08-.99,1.36,.86,.91,2.13,.31,3.18-4.9,8.56-11.09,16.21-16.84,24.27-1.13-1.05-.32-1.65,.08-2.21,3.65-5.11,7.32-10.21,11.01-15.29,.76-1.05,1.64-2.03,1.71-3.42,.19-.18,.48-.36,.1-.6-.05-.03-.27,.18-.41,.29Zm3.09-3.42c.07-.68-.06-1.22-.7-1.08-1.08,.24-1.52,1.15-1.7,2.15-.09,.46-.1,1.17,.53,1.13,1.34-.1,1.35-1.47,1.87-2.19Z"/>
  <path class="cls-3" d="M174.3,212.71c-7.18-8.01-13.64-16.45-16.25-27.19,3.62,10.13,10.03,18.61,16.25,27.19Z"/>
  <path class="cls-3" d="M211.46,332.38c-1.12,1.67-2.67,1.96-4.44,1.27-2.24-.88-2.76-2.94-2.71-4.92,.06-2.27,.52-4.57,1.11-6.77,.78-2.9,2.74-3.88,6.3-2.85-6.23,.8-5.52,5.38-5.91,9.11-.42,3.99,1.43,5.19,5.32,3.84,.11,.11,.23,.21,.34,.31Z"/>
  <path class="cls-3" d="M106.53,115.3c-3.46-5.97-6.92-11.95-10.38-17.92l.79-.46c3.76,5.77,7.23,11.72,10.34,17.87-.25,.17-.5,.34-.75,.51Z"/>
  <path class="cls-3" d="M74.03,94.49c.3-1.18-1.84-2.8,.45-3.53,1.74-.56,3.05,.38,3.85,2.03,1.56,3.18,3.16,6.34,4.74,9.5-.22,.12-.44,.25-.66,.37-1.24-2.15-2.78-4.19-3.65-6.49-1.01-2.65-2.14-3.82-4.76-1.91,0,0,.03,.03,.03,.03Z"/>
  <path class="cls-4" d="M213.03,321.94c.26,.02,.53,.04,.79,.06-.06,1.72-.35,3.38-1.67,4.62-1.49,1.41-3.69,1.06-3.95-.68-.2-1.33-.54-3.2,.95-3.71,1.62-.56,1.69,1.47,2.38,2.47,1.21-.55,.84-1.94,1.49-2.76Z"/>
  <path class="cls-3" d="M116.14,200.4c.38-1.12-.42-1.9-.83-2.78-.4-.85-.86-2-.3-2.56,2.61-2.6,1.77-5.39,.4-8.63,2.99,2.63,3.5,5.52,1.47,7.99-1.41,1.71-.58,2.98,.35,4.29,1.24,1.72,.07,1.67-1.12,1.68,0,0,.02,.02,.02,.02Z"/>
  <path class="cls-3" d="M146.9,212.36c2.17,4.05,4.34,8.09,6.51,12.14l-.72,.37c-2.89-3.65-4.99-7.71-5.95-12.36l.16-.14Z"/>
  <path class="cls-4" d="M167.24,321.34c-.33,0-.66,0-.99,0-.01-2.11,.28-4.55-3.18-3.01,0,0,.03,.03,.03,.03,.27-1.31-.65-3.48,1.55-3.49,2.13,0,2.76,1.87,2.72,3.83-.02,.88-.08,1.76-.12,2.64Z"/>
  <path class="cls-3" d="M194.38,220.26c2.68-2.98,5.35-5.95,8.03-8.93,.19,.16,.37,.32,.56,.49-2.23,3.36-4.99,6.28-7.85,9.11l-.74-.67Z"/>
  <path class="cls-4" d="M200.11,223.24c-.23,0-.47,0-.7,0-.72-1.33,.15-6.01,1.23-6.72,.39-.26,.74-.21,1.07,.06,.45,.36,.49,.86,.31,1.35-.62,1.78-1.28,3.54-1.92,5.32Z"/>
  <path class="cls-3" d="M90.4,87.12c2.01,2.04,3.32,4.52,4.36,7.18-1.85-2.08-3.69-4.15-4.73-6.79,.12-.14,.25-.27,.38-.4Z"/>
  <path class="cls-3" d="M85.88,108.52c-1.5-1.23-2.13-2.93-3.04-5.42,2.11,1.73,2.61,3.49,3.32,5.12-.1,.09-.19,.19-.28,.29Z"/>
  <path class="cls-3" d="M233.1,223.43c-.24,.94-.51,1.85-1.82,2.18-.05-1.31,.78-1.84,1.51-2.44,.1,.09,.2,.17,.31,.25Z"/>
  <path class="cls-3" d="M230.26,227.82c-.49,.15-.84,0-.74-.27,.15-.42,.49-.77,.8-1.11,.04-.04,.38,.2,.58,.31-.24,.39-.48,.79-.64,1.06Z"/>
  <path class="cls-3" d="M228.4,230.27c-.61,.18-.83-.11-.7-.36,.2-.4,.52-.78,.89-1.03,.33-.23,.58,.14,.47,.41-.17,.41-.5,.76-.66,.99Z"/>
  <path class="cls-3" d="M146.73,212.51c-.74-.54-1.08-1.23-.99-2.28,1.16,.45,1.09,1.33,1.16,2.13,0,0-.16,.14-.16,.14Z"/>
  <path class="cls-3" d="M96.19,95.82c-.18,.14-.32,.33-.43,.31-.45-.05-.59-.37-.46-.77,.03-.09,.35-.19,.42-.14,.19,.16,.32,.39,.48,.6Z"/>
  <path class="cls-3" d="M90.03,87.52c-.42-.32-1.22-.72-.65-1.21,.64-.54,.78,.39,1.02,.81-.13,.13-.25,.26-.38,.4Z"/>
  <path class="cls-3" d="M79.42,22.25c1.22,.64,2.04,1.53,1.82,3.04-1.11-.71-2.03-1.53-1.82-3.04Z"/>
  <path class="cls-3" d="M82.43,27.07c1.27,.04,1.36,.86,1.23,1.83-.83-.33-1.16-.99-1.23-1.83Z"/>
  <path class="cls-3" d="M81.23,25.26c1.31,0,1.37,.85,1.22,1.83-.77-.37-1.23-.94-1.22-1.83Z"/>
  <path class="cls-2" d="M296.3,95.86c-.26,.38,.03,1.37-.7,1.08-.51-.21-.08-.96,.33-1.37,.12,.1,.24,.2,.36,.29Z"/>
  <path class="cls-2" d="M125.77,204c-1.54-.44-2.2-1.55-2.26-3.06,0-.15,.51-.5,.61-.45,1.32,.78,1.82,1.99,1.67,3.5,0,0-.01,0-.01,0Z"/>
  <path class="cls-2" d="M226.24,203.47c-.53,.72-.53,2.09-1.87,2.19-.63,.05-.61-.66-.53-1.13,.19-1,.62-1.91,1.7-2.15,.63-.14,.77,.4,.7,1.08Z"/>
  <path class="cls-2" d="M223.15,206.89c.14-.1,.35-.32,.41-.29,.38,.24,.09,.42-.1,.6-.1-.1-.21-.21-.31-.31Z"/>
</svg>