<svg width="60" height="60" viewBox="0 0 60 60" fill="none" xmlns="http://www.w3.org/2000/svg">
<path d="M25.5021 1.03365L58.1451 26.2726C59.1134 27.0213 59.5824 28.3721 59.4883 29.8235C59.3945 31.2696 58.7449 32.7088 57.6199 33.5787L24.9768 58.8177C23.8701 59.6734 22.7227 59.6645 21.8538 59.121C20.9672 58.5665 20.2838 57.3976 20.2838 55.7738L20.2838 5.29584C20.2838 3.51026 21.0978 2.01097 22.1637 1.18683C23.2215 0.368963 24.4725 0.237618 25.5021 1.03365Z" fill="white" stroke="black"/>
<path d="M5.71829 1.03365L38.3613 26.2726C39.3296 27.0213 39.7986 28.3721 39.7044 29.8235C39.6106 31.2696 38.9611 32.7088 37.836 33.5787L5.19303 58.8177C4.08631 59.6734 2.93892 59.6645 2.07002 59.121C1.18337 58.5665 0.5 57.3976 0.5 55.7738L0.5 5.29584C0.5 3.51026 1.31401 2.01097 2.37992 1.18683C3.43771 0.368963 4.68874 0.237618 5.71829 1.03365Z" fill="white" stroke="black"/>
</svg>
